Coordinates
version=1
nRows=16
nColumns=40
inDegrees=yes

Units are S.I. units (second, meters, Newtons, ...)
If the header above contains a line with 'inDegrees', this indicates whether rotational values are in degrees (yes) or radians (no).

endheader
time	pelvis_tilt	pelvis_list	pelvis_rotation	pelvis_tx	pelvis_ty	pelvis_tz	hip_flexion_r	hip_adduction_r	hip_rotation_r	knee_angle_r	knee_angle_r_beta	ankle_angle_r	subtalar_angle_r	mtp_angle_r	hip_flexion_l	hip_adduction_l	hip_rotation_l	knee_angle_l	knee_angle_l_beta	ankle_angle_l	subtalar_angle_l	mtp_angle_l	lumbar_extension	lumbar_bending	lumbar_rotation	arm_flex_r	arm_add_r	arm_rot_r	elbow_flex_r	pro_sup_r	wrist_flex_r	wrist_dev_r	arm_flex_l	arm_add_l	arm_rot_l	elbow_flex_l	pro_sup_l	wrist_flex_l	wrist_dev_l
      3.19500000	    -39.04780633	      4.86846788	      4.44959300	     -0.45331565	      0.51714134	     -0.95279942	    119.79826559	    -28.16591032	     10.35327244	    106.28553436	      1.85503252	     34.55159048	      0.00000000	      0.00000000	    112.91615542	    -15.74248836	     -2.29112499	    106.63746071	      1.86117480	     34.49014511	      0.00000000	      0.00000000	    -32.50308668	      0.10143926	    -20.23313427	     15.95184573	    -53.45543105	     78.69568473	    101.95218425	     87.31855787	      0.00000000	      0.00000000	    -34.18592047	    -42.20046687	     25.78131152	     98.05118020	     87.57687202	      0.00000000	      0.00000000
      3.20000000	    -39.20036266	      4.75185884	      3.79725425	     -0.45361345	      0.51604210	     -0.95141421	    119.79494944	    -27.46658990	      9.91154934	    106.31656768	      1.85557416	     34.45111202	      0.00000000	      0.00000000	    113.35112248	    -16.49192853	     -1.87767573	    106.83178576	      1.86456641	     34.38856132	      0.00000000	      0.00000000	    -32.42810410	     -0.19285269	    -19.51584033	     15.40347918	    -53.50979875	     78.19226342	    102.01945319	     87.24372878	      0.00000000	      0.00000000	    -34.10003392	    -42.33942075	     25.99074231	     98.09486172	     87.62777891	      0.00000000	      0.00000000
      3.20500000	    -39.25763547	      4.66733172	      3.15734085	     -0.45427502	      0.51490138	     -0.95016716	    119.78270172	    -26.78340780	      9.46247102	    106.33964190	      1.85597688	     34.44013696	      0.00000000	      0.00000000	    113.71813226	    -17.18475577	     -1.46492352	    107.04322803	      1.86825677	     34.42936185	      0.00000000	      0.00000000	    -32.45457717	     -0.42459088	    -19.32162237	     16.45609150	    -56.28774794	     77.06633368	    106.38158732	     87.44289039	      0.00000000	      0.00000000	    -34.69833319	    -42.12051404	     25.44917180	     98.21416470	     87.56720988	      0.00000000	      0.00000000
      3.21000000	    -39.22686700	      4.77094013	      2.75045397	     -0.45460174	      0.51378901	     -0.94928550	    119.79466873	    -26.27833678	      9.40343475	    106.39047070	      1.85686401	     34.43830845	      0.00000000	      0.00000000	    113.87365926	    -17.68758957	     -1.31760523	    107.26167958	      1.87206947	     34.40217171	      0.00000000	      0.00000000	    -32.63971464	     -0.77360540	    -18.76695036	     15.03126800	    -56.39586002	     75.49499042	    106.54745216	     87.52731779	      0.00000000	      0.00000000	    -34.68741856	    -42.29762704	     25.41819012	     98.47239080	     87.59188698	      0.00000000	      0.00000000
      3.21500000	    -39.31779631	      5.03534636	      1.65286411	     -0.45465072	      0.51219982	     -0.94730966	    119.80424727	    -24.97210055	      9.10792585	    106.38178527	      1.85671242	     34.53080967	      0.00000000	      0.00000000	    114.21609967	    -19.03866749	     -1.06750919	    107.67266659	      1.87924255	     34.46182842	      0.00000000	      0.00000000	    -32.60676821	     -1.66541517	    -17.74281267	     13.88300451	    -56.42086715	     74.47784926	    106.57848730	     87.53027499	      0.00000000	      0.00000000	    -34.54553228	    -42.57288006	     25.69937668	     98.59494704	     87.59012166	      0.00000000	      0.00000000
      3.22000000	    -39.57585699	      4.70953096	      1.33262829	     -0.45564019	      0.51070039	     -0.94637857	    119.82298954	    -24.60060821	      8.65116839	    106.32300777	      1.85568656	     34.85112759	      0.00000000	      0.00000000	    114.92775756	    -19.32963859	     -0.46930093	    107.81319191	      1.88169518	     34.25939212	      0.00000000	      0.00000000	    -32.48757373	     -1.57469578	    -16.72888801	     12.25683611	    -56.59879831	     73.10229921	    106.64963441	     87.43543968	      0.00000000	      0.00000000	    -33.78444780	    -43.11478784	     26.65499263	     98.76298802	     87.51583491	      0.00000000	      0.00000000
      3.22500000	    -39.45066372	      4.87674435	      0.89042508	     -0.45601480	      0.50939925	     -0.94542526	    119.83052728	    -23.99041582	      8.70320139	    106.46236685	      1.85811883	     34.86573035	      0.00000000	      0.00000000	    114.99793659	    -19.89372775	     -0.37124386	    108.05555554	      1.88592522	     34.38195482	      0.00000000	      0.00000000	    -32.62992126	     -2.00146731	    -17.52273879	     15.05266600	    -56.36081325	     75.66924792	    106.84228153	     87.60789304	      0.00000000	      0.00000000	    -35.91816010	    -42.24775574	     24.32398169	     99.18818413	     87.62377761	      0.00000000	      0.00000000
      3.23000000	    -39.49761630	      4.89434522	      0.21072739	     -0.45638512	      0.50791335	     -0.94408576	    119.84232589	    -23.20026857	      8.40355420	    106.50444703	      1.85885327	     34.90800284	      0.00000000	      0.00000000	    115.38420979	    -20.67448682	      0.03072850	    108.36085945	      1.89125378	     34.32867259	      0.00000000	      0.00000000	    -32.66308140	     -2.41094385	    -16.64809732	     14.18380355	    -56.52357323	     75.04544267	    106.99783824	     87.48952285	      0.00000000	      0.00000000	    -35.45205816	    -42.70862597	     25.09566227	     99.28318657	     87.56717978	      0.00000000	      0.00000000
      3.23500000	    -39.46052213	      4.97676582	     -0.39805124	     -0.45646008	      0.50631958	     -0.94286235	    119.85006957	    -22.52493387	      8.24846015	    106.64683929	      1.86133848	     35.02408354	      0.00000000	      0.00000000	    115.64858758	    -21.43981466	      0.30135818	    108.70753524	      1.89730441	     34.38706541	      0.00000000	      0.00000000	    -32.69059609	     -2.86915835	    -15.81743976	     12.88388498	    -56.66666534	     74.23695893	    106.79946321	     87.46025989	      0.00000000	      0.00000000	    -35.00095780	    -43.09030696	     25.76588272	     99.36505671	     87.59832321	      0.00000000	      0.00000000
      3.24000000	    -39.40992992	      5.05464339	     -0.88200367	     -0.45671730	      0.50482477	     -0.94178033	    119.85688635	    -21.93424900	      8.14123180	    106.76089167	      1.86332907	     35.14371807	      0.00000000	      0.00000000	    115.86776236	    -22.03407138	      0.54951059	    108.98864540	      1.90221071	     34.48565398	      0.00000000	      0.00000000	    -32.86172625	     -3.29084328	    -15.63712741	     13.09193605	    -56.57363544	     74.47421123	    106.82947645	     87.52140346	      0.00000000	      0.00000000	    -35.91605347	    -43.13815732	     24.89388935	     99.88245982	     87.60124492	      0.00000000	      0.00000000
      3.24500000	    -39.39566694	      5.21412682	     -1.71390018	     -0.45679199	      0.50305285	     -0.94022657	    119.86361210	    -20.96964836	      7.91204728	    106.85999833	      1.86505881	     35.31153753	      0.00000000	      0.00000000	    116.19756844	    -23.04252754	      0.89837798	    109.39017819	      1.90921878	     34.57340876	      0.00000000	      0.00000000	    -32.84560164	     -3.93578619	    -15.05667804	     13.04507157	    -56.56384498	     74.52156416	    106.90417412	     87.51529285	      0.00000000	      0.00000000	    -36.14952585	    -43.19896848	     24.77794574	    100.03992853	     87.60477712	      0.00000000	      0.00000000
      3.25000000	    -39.42757801	      5.26065938	     -2.56273695	     -0.45711569	      0.50129718	     -0.93852559	    119.86889189	    -20.03084308	      7.53037290	    106.91105651	      1.86594994	     35.40159092	      0.00000000	      0.00000000	    116.67596206	    -24.02914278	      1.41943112	    109.77591083	      1.91595108	     34.51784536	      0.00000000	      0.00000000	    -32.81287195	     -4.49031956	    -14.19880503	     12.32041511	    -56.59898778	     73.70098190	    107.12332834	     87.42105292	      0.00000000	      0.00000000	    -36.03377168	    -43.42310770	     25.09648981	    100.18066641	     87.57035417	      0.00000000	      0.00000000
      3.25500000	    -39.30027635	      5.39936568	     -3.03770525	     -0.45722920	      0.49961005	     -0.93758781	    119.87603986	    -19.45427455	      7.54253915	    107.08215427	      1.86893616	     35.47835243	      0.00000000	      0.00000000	    116.82758050	    -24.63701881	      1.61498777	    110.11067014	      1.92179374	     34.63462069	      0.00000000	      0.00000000	    -32.88090296	     -4.93714445	    -13.67108313	     11.72065412	    -56.63970784	     73.18434848	    107.21300430	     87.49945732	      0.00000000	      0.00000000	    -35.73305129	    -43.75499648	     25.59903149	    100.29072874	     87.62210411	      0.00000000	      0.00000000
      3.26000000	    -39.18080173	      5.39698516	     -3.44800552	     -0.45699377	      0.49782977	     -0.93652250	    119.87944155	    -19.04237428	      7.38644779	    107.38512727	      1.87422404	     35.67699617	      0.00000000	      0.00000000	    117.05664531	    -25.16223419	      1.95518195	    110.50855332	      1.92873811	     34.73388476	      0.00000000	      0.00000000	    -32.97697103	     -5.20849334	    -13.42857281	     11.68071817	    -56.56983293	     73.19440363	    107.26605598	     87.51183240	      0.00000000	      0.00000000	    -35.99338030	    -43.73826022	     25.50710413	    100.31012583	     87.61353519	      0.00000000	      0.00000000
      3.26500000	    -39.07400360	      5.59960063	     -3.92279618	     -0.45704194	      0.49622361	     -0.93557872	    119.88586515	    -18.48677604	      7.37314049	    107.47000935	      1.87570551	     35.81324240	      0.00000000	      0.00000000	    117.19559963	    -25.81394298	      2.07458318	    110.82255898	      1.93421854	     34.77615773	      0.00000000	      0.00000000	    -33.13192218	     -5.71858007	    -12.67656937	      9.74244603	    -56.65016872	     71.22575765	    107.42918949	     87.53623902	      0.00000000	      0.00000000	    -35.49568816	    -44.19005172	     25.97852183	    100.57588304	     87.63114000	      0.00000000	      0.00000000
      3.27000000	    -39.04805609	      5.75776871	     -5.04371916	     -0.45718157	      0.49429044	     -0.93335413	    119.88836835	    -17.18477044	      7.03470259	    107.57448094	      1.87752888	     35.97863599	      0.00000000	      0.00000000	    117.67450504	    -27.15088505	      2.67148985	    111.27494752	      1.94211421	     34.86479828	      0.00000000	      0.00000000	    -33.01691935	     -6.53343240	    -11.87398639	      9.85846794	    -56.58192242	     71.40053256	    107.43684036	     87.54867582	      0.00000000	      0.00000000	    -35.83800608	    -44.10347639	     25.75016517	    100.61736946	     87.61300537	      0.00000000	      0.00000000
